<svg viewBox="0 0 64 64" xmlns="http://www.w3.org/2000/svg">
    <rect width="64" height="64" fill="#28a3cc" />
    <polygon points="21,31 21,35 24,35 24,36 25,36 25,38 26,38 26,40 27,40 27,41 28,41 28,42 29,42 29,44 36,44 36,42 37,42 37,41 34,41 34,42 30,42 30,41 28,41 28,40 29,40 29,38 28,38 28,37 27,37 27,36 26,36 26,35 25,35 25,30 26,30 26,28 27,28 27,25 28,25 28,22 29,22 29,21 28,21 28,16 29,16 29,18 30,18 30,16 29,16 29,15 30,15 30,16 31,16 31,17 32,17 32,16 33,16 33,18 34,18 34,16 33,16 33,15 34,15 34,16 35,16 35,21 36,21 36,23 37,23 37,26 38,26 38,28 39,28 39,30 40,30 40,32 41,32 41,33 40,33 40,34 39,34 39,35 40,35 40,36 43,36 43,35 44,35 44,34 45,34 45,29 44 ,29 44,28 43,28 43,26 42,26 42,25 41,25 41,24 40,24 40,22 39,22 39,20 38,20 38,12 37,12 37,11 36,11 36,10 34,10 34,9 31,9 31,10 29,10 29,11 28,11 28,12 27,12 27,23 26,23 26,24 25,24 25,25 24,25 24,27 23,27 23,28 22,28 22,31" fill="#111111" />
    <polygon points="28,16 28,19 29,19 29,16 30,16 30,17 31,17 31,16 30,16 30,15 29,15 29,16" fill="#f2f8f9" />
    <polygon points="32,16 32,18 33,18 33,16 34,16 34,19 35,19 35,16 34,16 34,15 33,15 33,16" fill="#f2f8f9" />
    <polygon points="25,30 25,35 26,35 26,36 27,36 27,37 28,37 28,38 29,38 29,40 28,40 28,41 30,41 30,42 34,42 34,41 37,41 37,39 38,39 38,36 39,36 39,34 40,34 40,33 41,33 41,32 40,32 40,30 39,30 39,28 38,28 38,26 37,26 37,23 36,23 36,21 34,21 34,22 28,22 28,25 27,25 27,28 26,28 26,30" fill="#f2f8f9" />
    <polygon points="28,19 28,21 29,21 29,22 34,22 34,21 35,21 35,19 34,19 34,18 32,18 32,17 30,17 30,18 29,18 29,19" fill="#f5bf04" />
    <polygon points="17,38 17,43 18,43 18,44 22,44 22,45 28,45 28,44 29,44 29,42 28,42 28,41 27,41 27,40 26,40 26,38 25,38 25,36 24,36 24,35 21,35 21,36 20,36 20,37 18,37 18,38" fill="#f5bf04" />
    <polygon points="36,42 36,44 37,44 37,45 41,45 41,44 43,44 43,43 45,43 45,42 46,42 46,41 47,41 47,39 46,39 46,38 45,38 45,36 44,36 44,35 43,35 43,36 40,36 40,35 39,35 39,36 38,36 38,39 37,39 37,42" fill="#f5bf04" />
    <polygon points="12,46 12,53 43,53 43,54 40,54 40,55 44,55 44,54 45,54 45,53 51,53 51,52 48,52 48,51 52,51 52,49 51,49 51,48 50,48 50,50 48,50 48,49 50,49 50,48 47,48 47,49 46,49 46,52 47,52 47,53 45,53 45,49 44,49 44,48 43,48 43,52 41,52 41,49 43,49 43,48 40,48 40,49 39,49 39,52 40,52 40,53 38,53 38,46 36,46 36,51 35,51 35,52 36,52 36,53 35,53 35,52 34,52 34,49 36,49 36,48 33,48 33,49 32,49 32,52 33,52 33,53 31,53 31,46 29,46 29,51 28,51 28,52 29,52 29,53 28,53 28,52 27,52 27,49 29,49 29,48 26,48 26,49 25,49 25,52 26,52 26,53 24,53 24,49 23,49 23,48 22,48 22,51 21,51 21,52 22,52 22,53 21,53 21,52 20,52 20,49 22,49 22,48 19,48 19,49 18,49 18,52 19,52 19,53 17,53 17,51 16,51 16,52 14,52 14,46" fill="#111111" />
</svg>
